<svg id="Слой_1" data-name="Слой 1" xmlns="http://www.w3.org/2000/svg" viewBox="0 0 1920 1080"><path d="M961.38,683.38a4.57,4.57,0,0,1-1.21-.16,4.74,4.74,0,0,1-3.38-5.79c11.21-42.6,8.85-83.75,4.9-110.76-2.41-16.51,6.46-19.52,9.24-20,10.17-1.92,22.53,9.47,25.93,23.93,3.54,15,5.09,67.19-1.48,92.16a4.74,4.74,0,1,1-9.17-2.41c6.12-23.29,4.69-73.66,1.42-87.58-2.6-11-11.23-17.49-14.93-16.78-1.71.32-2.38,4.17-1.62,9.36,4.07,27.89,6.5,70.4-5.12,114.54A4.74,4.74,0,0,1,961.38,683.38Z"/><path d="M908.53,708.9a19.2,19.2,0,0,1-13.44-5.38c-6.88-6.63-8.87-17.78-5.46-30.59,8.49-32,8.3-94.87-.4-127h0c-4.34-16,.87-24.24,4.36-27.72,5-4.93,12.54-6.6,20.3-4.47,9.68,2.66,21.71,12.09,26.45,30.58,8.18,31.9,5.71,95.81-2,131.64-3.61,16.86-12.22,28.53-23.62,32A21.44,21.44,0,0,1,908.53,708.9ZM898.38,543.44c9.2,34,9.4,98.11.41,131.93-2.49,9.38-1.45,17.15,2.88,21.32a10.16,10.16,0,0,0,10.31,2.2c7.89-2.41,14.29-11.73,17.12-24.93,7.3-34.09,9.79-97.12,2.06-127.29-3.74-14.57-12.67-21.85-19.78-23.8-4.51-1.24-8.55-.49-11.1,2C896.82,528.37,896.13,535.12,898.38,543.44Z"/><path d="M874.88,592.56c-5.34-13.54-12.48-18.95-19.38-21.77,5.8-5.74,11.14-13,13.69-26.93a5.53,5.53,0,0,0-10.88-2c-2.56,14-8,18.89-15,25.12l-.18.16c-4-1.21-7.07-2.83-9.57-7.06a5.53,5.53,0,0,0-9.52,5.64,24.46,24.46,0,0,0,10.48,9.9,63.4,63.4,0,0,0-10.64,17.27,5.53,5.53,0,0,0,2.91,7.26,5.59,5.59,0,0,0,2.17.45,5.53,5.53,0,0,0,5.09-3.37,52.33,52.33,0,0,1,12.13-17.84c7.11,1.88,13.3,4.37,18.37,17.22a5.54,5.54,0,0,0,5.14,3.5,5.35,5.35,0,0,0,2-.39A5.53,5.53,0,0,0,874.88,592.56Z"/><path d="M874.88,630A5.53,5.53,0,0,0,864.59,626c-5.07,12.85-11.26,15.34-18.37,17.22a52.29,52.29,0,0,1-12.13-17.85,5.53,5.53,0,0,0-10.17,4.35A63.64,63.64,0,0,0,834.55,647a24.49,24.49,0,0,0-10.47,9.9,5.53,5.53,0,0,0,9.52,5.64c2.5-4.23,5.6-5.85,9.57-7.06l.18.16c6.93,6.23,12.4,11.14,15,25.12a5.53,5.53,0,0,0,5.44,4.53,5.72,5.72,0,0,0,1-.09,5.53,5.53,0,0,0,4.44-6.44c-2.55-13.92-7.89-21.18-13.69-26.92C862.4,649,869.54,643.56,874.88,630Z"/></svg>