<svg xmlns="http://www.w3.org/2000/svg" viewBox="0 0 176.64 196.07"><g id="Layer_2" data-name="Layer 2"><g id="Слой_1" data-name="Слой 1"><path d="M138.11,170.55a5,5,0,0,1-1.21-.16,4.75,4.75,0,0,1-3.38-5.79h0c11.21-42.6,8.85-83.75,4.9-110.76-2.41-16.51,6.46-19.52,9.24-20,10.17-1.92,22.53,9.47,25.93,23.93,3.54,15,5.09,67.19-1.48,92.16a4.74,4.74,0,1,1-9.17-2.41h0c6.12-23.29,4.69-73.66,1.42-87.58-2.6-11-11.23-17.49-14.93-16.78-1.71.32-2.38,4.17-1.62,9.36,4.07,27.89,6.5,70.4-5.12,114.54A4.74,4.74,0,0,1,138.11,170.55Z"/><path d="M85.26,196.07a19.2,19.2,0,0,1-13.44-5.38c-6.88-6.63-8.87-17.78-5.46-30.59,8.49-32,8.3-94.87-.4-127h0c-4.34-16,.87-24.24,4.36-27.72,5-4.93,12.54-6.6,20.3-4.47C100.3,3.57,112.33,13,117.07,31.49c8.18,31.9,5.71,95.81-2,131.64-3.61,16.86-12.22,28.53-23.62,32A21.6,21.6,0,0,1,85.26,196.07ZM75.11,30.61c9.2,34,9.4,98.11.41,131.93-2.49,9.38-1.45,17.15,2.88,21.32a10.18,10.18,0,0,0,10.31,2.2c7.89-2.41,14.29-11.73,17.12-24.93,7.3-34.09,9.79-97.12,2.06-127.29C104.15,19.27,95.22,12,88.11,10,83.6,8.8,79.56,9.55,77,12,73.55,15.54,72.86,22.29,75.11,30.61Z"/><path d="M51.61,79.73C46.27,66.19,39.13,60.78,32.23,58,38,52.22,43.37,45,45.92,31A5.53,5.53,0,1,0,35,29c-2.56,14-8,18.89-15,25.12l-.18.16c-4-1.21-7.07-2.83-9.57-7.06A5.53,5.53,0,1,0,.77,52.89a24.43,24.43,0,0,0,10.48,9.9A63.52,63.52,0,0,0,.61,80.06a5.53,5.53,0,0,0,2.91,7.26h0a5.81,5.81,0,0,0,2.17.45,5.53,5.53,0,0,0,5.09-3.37A52.26,52.26,0,0,1,22.91,66.56c7.11,1.88,13.3,4.37,18.37,17.22a5.56,5.56,0,0,0,5.14,3.5,5.44,5.44,0,0,0,2-.39,5.53,5.53,0,0,0,3.2-7.14Z"/><path d="M51.61,117.17a5.53,5.53,0,0,0-10.29-4C36.25,126,30.06,128.51,23,130.39a52.3,52.3,0,0,1-12.13-17.85A5.53,5.53,0,1,0,.65,116.89h0a63.94,63.94,0,0,0,10.63,17.28,24.46,24.46,0,0,0-10.47,9.9,5.53,5.53,0,0,0,9.52,5.64h0c2.5-4.23,5.6-5.85,9.57-7.06l.18.16C27,149,32.48,154,35.08,167.93a5.53,5.53,0,0,0,10.88-2h0C43.41,152,38.07,144.75,32.27,139,39.13,136.17,46.27,130.73,51.61,117.17Z"/></g></g></svg>